#N canvas 2221 328 1440 810 12;
#X obj 490 204 + 1;
#X obj 432 160 inlet;
#X obj 408 321 outlet;
#X obj 433 203 int;
#X obj 360 161 inlet;
#X obj 305 214 - 1;
#X obj 380 204 int;
#X text 431 128 left inlet bang increase number;
#X text 183 126 right inlet bang decrease number;
#X connect 0 0 3 1;
#X connect 1 0 3 0;
#X connect 3 0 0 0;
#X connect 3 0 6 1;
#X connect 3 0 2 0;
#X connect 4 0 6 0;
#X connect 5 0 6 1;
#X connect 6 0 2 0;
#X connect 6 0 5 0;
#X connect 6 0 3 1;
