#N canvas 0 69 1920 1011 12;
#X obj 630 113 key;
#X obj 1123 161 keyup;
#X obj 1123 230 bng 15 250 50 0 empty empty empty 17 7 0 10 -262144
-1 -1;
#X msg 1060 258 1, f 5;
#X msg 1123 257 0, f 5;
#X obj 910 439 *~;
#X floatatom 583 156 5 0 0 0 - - -;
#X msg 301 265 196;
#X msg 350 262 207.7;
#X msg 410 262 220;
#X msg 458 261 233.1;
#X msg 513 261 246.9;
#X msg 568 260 261.1;
#X msg 624 259 277.2;
#X msg 676 260 293.7;
#X msg 733 260 311.1;
#X msg 784 260 329.6;
#X msg 835 260 349.2;
#X msg 888 260 370;
#X msg 926 260 392;
#X obj 949 474 vsl 15 128 0 1 0 0 empty empty empty 0 -9 0 10 -262144
-1 -1 0 1;
#X floatatom 949 615 5 0 0 0 - - -;
#X obj 1235 256 * 0.05776;
#X obj 1235 289 exp;
#X obj 1235 321 -1;
#X obj 1235 352 * -1;
#X obj 1235 411 /;
#X floatatom 1235 442 5 0 0 0 - - -;
#X obj 1234 523 -~ 0.5;
#X obj 1233 567 *~ 0.5;
#X obj 1233 610 cos~;
#X obj 1232 757 +~;
#X obj 1233 650 *~;
#X obj 1539 254 max 1;
#X obj 1369 316 * 0.001;
#X obj 1369 350 t b f;
#X obj 1539 294 pack 0 200;
#X obj 1539 329 line~;
#X obj 1443 529 +~ 0.5;
#X obj 1444 563 wrap~;
#X obj 1443 605 -~ 0.5;
#X obj 1444 641 *~ 0.5;
#X obj 1445 677 cos~;
#X obj 1444 717 *~;
#X obj 1308 527 *~;
#X obj 1309 568 +~;
#X obj 1310 610 vd~ del_line;
#X obj 1522 597 *~;
#X obj 1523 630 +~;
#X obj 1523 667 vd~ del_line;
#X obj 1734 326 max 1.5;
#X obj 1734 360 pack 0 200;
#X obj 1734 403 line~;
#X obj 1733 450 s~ line;
#X obj 1347 526 r~ line;
#X floatatom 1235 222 5 0 0 0 - - -;
#X floatatom 1539 221 5 0 0 0 - - -;
#X obj 930 780 delwrite~ del_line 1000;
#X floatatom 973 692 5 0 0 0 - - -;
#X obj 1235 470 phasor~;
#X obj 1175 864 output~;
#X obj 949 652 * 0.4;
#X text 1285 221 Transposition (half steps);
#X text 1591 221 window (ms);
#X text 1784 291 delay (ms);
#X obj 730 339 osc~;
#X obj 1060 352 adsr 1 50 50 70 300;
#X floatatom 1734 294 5 0 0 0 - - -;
#X text 19 19 QWERTY KEYBOARD WITH PITCH SHIFTER;
#X text 229 81 a: G;
#X text 222 97 w: G#;
#X text 229 109 s: A;
#X text 222 124 e: A#;
#X text 229 138 d: B;
#X text 222 169 t: C#;
#X text 166 154 f: (middle) C;
#X text 229 184 g: D;
#X text 222 200 y: D#;
#X text 229 217 h: E;
#X text 229 232 j: F;
#X text 222 248 i: F#;
#X text 229 264 k: G;
#X text 103 66 Keyboard Button Layout;
#X text 68 326 Pitch Shifter Button Layout;
#X text 82 355 2: increase transposition;
#X text 82 341 1: decrease transposition;
#X text 138 369 3: decrease delay;
#X text 138 383 4: increase delay;
#X obj 910 693 *~ 0.4;
#X obj 1249 179 loadbang;
#X text 970 880 make sure to turn volume on;
#X msg 963 260 415.3;
#X msg 1014 260 440;
#X obj 630 157 select 97 119 115 101 100 102 116 103 121 104 106 105
107 111 108, f 65;
#X text 222 278 o: G#;
#X text 229 293 l: A;
#X obj 1515 -179 comport /dev/ttyACM0 9600;
#X msg 1536 -216 close;
#X msg 1515 -251 devicename /dev/ttyACM0;
#X obj 1515 -122 moses 3;
#X floatatom 1515 -82 5 0 0 0 - - -;
#X floatatom 1573 -83 5 0 0 0 - - -;
#X obj 1515 -38 pack;
#X obj 1515 0 route 0 1 2;
#X obj 1235 96 map -24 24 3;
#X obj 1734 96 map 0 500 3;
#X text 1425 -81 control id;
#X text 1624 -84 potentiometer value;
#X obj 1539 100 map 0 100 3;
#X connect 0 0 6 0;
#X connect 0 0 93 0;
#X connect 1 0 2 0;
#X connect 2 0 4 0;
#X connect 3 0 66 0;
#X connect 4 0 66 0;
#X connect 5 0 88 0;
#X connect 7 0 65 0;
#X connect 8 0 65 0;
#X connect 9 0 65 0;
#X connect 10 0 65 0;
#X connect 11 0 65 0;
#X connect 12 0 65 0;
#X connect 13 0 65 0;
#X connect 14 0 65 0;
#X connect 15 0 65 0;
#X connect 16 0 65 0;
#X connect 17 0 65 0;
#X connect 18 0 65 0;
#X connect 19 0 65 0;
#X connect 20 0 21 0;
#X connect 21 0 61 0;
#X connect 22 0 23 0;
#X connect 23 0 24 0;
#X connect 24 0 25 0;
#X connect 25 0 26 0;
#X connect 26 0 27 0;
#X connect 27 0 59 0;
#X connect 28 0 29 0;
#X connect 29 0 30 0;
#X connect 30 0 32 0;
#X connect 31 0 60 1;
#X connect 31 0 60 0;
#X connect 32 0 31 0;
#X connect 33 0 34 0;
#X connect 33 0 36 0;
#X connect 34 0 35 0;
#X connect 35 0 26 0;
#X connect 35 1 26 1;
#X connect 36 0 37 0;
#X connect 37 0 44 1;
#X connect 37 0 47 1;
#X connect 38 0 39 0;
#X connect 39 0 40 0;
#X connect 39 0 47 0;
#X connect 40 0 41 0;
#X connect 41 0 42 0;
#X connect 42 0 43 0;
#X connect 43 0 31 1;
#X connect 44 0 45 0;
#X connect 45 0 46 0;
#X connect 46 0 32 1;
#X connect 47 0 48 0;
#X connect 48 0 49 0;
#X connect 49 0 43 1;
#X connect 50 0 51 0;
#X connect 51 0 52 0;
#X connect 52 0 48 1;
#X connect 52 0 53 0;
#X connect 54 0 45 1;
#X connect 55 0 22 0;
#X connect 56 0 33 0;
#X connect 59 0 28 0;
#X connect 59 0 38 0;
#X connect 59 0 44 0;
#X connect 61 0 58 0;
#X connect 61 0 88 1;
#X connect 65 0 5 0;
#X connect 66 0 5 1;
#X connect 67 0 50 0;
#X connect 88 0 57 0;
#X connect 89 0 55 0;
#X connect 91 0 65 0;
#X connect 92 0 65 0;
#X connect 93 0 3 0;
#X connect 93 0 7 0;
#X connect 93 1 8 0;
#X connect 93 1 3 0;
#X connect 93 2 9 0;
#X connect 93 2 3 0;
#X connect 93 3 10 0;
#X connect 93 3 3 0;
#X connect 93 4 11 0;
#X connect 93 4 3 0;
#X connect 93 5 12 0;
#X connect 93 5 3 0;
#X connect 93 6 13 0;
#X connect 93 6 3 0;
#X connect 93 7 14 0;
#X connect 93 7 3 0;
#X connect 93 8 3 0;
#X connect 93 8 15 0;
#X connect 93 9 3 0;
#X connect 93 9 16 0;
#X connect 93 10 3 0;
#X connect 93 10 17 0;
#X connect 93 11 3 0;
#X connect 93 11 18 0;
#X connect 93 12 3 0;
#X connect 93 12 19 0;
#X connect 93 13 91 0;
#X connect 93 13 3 0;
#X connect 93 14 92 0;
#X connect 93 14 3 0;
#X connect 96 0 99 0;
#X connect 97 0 96 0;
#X connect 98 0 96 0;
#X connect 99 0 100 0;
#X connect 99 1 101 0;
#X connect 100 0 102 0;
#X connect 101 0 102 1;
#X connect 102 0 103 0;
#X connect 103 0 104 0;
#X connect 103 1 108 0;
#X connect 103 2 105 0;
#X connect 104 0 55 0;
#X connect 105 0 67 0;
#X connect 108 0 56 0;
