#N canvas 4058 222 1062 657 12;
#X obj 63 91 inlet;
#X obj 335 142 inlet;
#X obj 223 315 -;
#X text 60 52 input;
#X text 232 76 low;
#X obj 241 108 inlet;
#X text 327 113 high;
#X obj 236 457 *;
#X obj 204 511 +;
#X obj 202 558 outlet;
#X obj 52 168 t b f;
#X obj 78 248 + \$1;
#X obj 244 286 + \$2;
#X obj 458 168 inlet;
#X text 440 129 num controls;
#X obj 378 253 + \$3;
#X obj 370 327 * -1;
#X obj 361 360 + 255;
#X obj 231 399 /;
#X floatatom 297 562 5 0 0 0 - - -;
#X obj 138 267 -;
#X text 661 99 map input value to range [low \, high];
#X text 623 140 num controls should be equal to moses value;
#X connect 0 0 10 0;
#X connect 1 0 12 0;
#X connect 2 0 18 0;
#X connect 5 0 11 0;
#X connect 7 0 8 1;
#X connect 8 0 9 0;
#X connect 8 0 19 0;
#X connect 10 0 12 0;
#X connect 10 0 11 0;
#X connect 10 0 15 0;
#X connect 10 1 20 0;
#X connect 11 0 8 0;
#X connect 11 0 2 1;
#X connect 12 0 2 0;
#X connect 13 0 15 0;
#X connect 15 0 20 1;
#X connect 15 0 16 0;
#X connect 16 0 17 0;
#X connect 17 0 18 1;
#X connect 18 0 7 0;
#X connect 20 0 7 1;
