#N canvas 3840 69 1920 1011 12;
#X obj 45 154 adc~;
#X msg 143 175 0;
#X msg 260 176 1;
#X obj 222 254 *~ 0;
#X msg 183 174 1;
#X msg 220 175 0;
#X obj 159 124 select 0 1;
#X obj 54 253 *~ 1;
#X obj 159 34 inlet;
#X obj 53 311 outlet~;
#X obj 221 315 outlet~;
#X connect 0 0 3 0;
#X connect 0 0 7 0;
#X connect 0 1 3 0;
#X connect 0 1 7 0;
#X connect 1 0 7 1;
#X connect 2 0 7 1;
#X connect 3 0 10 0;
#X connect 4 0 3 1;
#X connect 5 0 3 1;
#X connect 6 0 1 0;
#X connect 6 0 4 0;
#X connect 6 1 2 0;
#X connect 6 1 5 0;
#X connect 7 0 9 0;
#X connect 8 0 6 0;
