#N canvas 0 96 1920 1104 12;
#X obj 523 388 *~;
#X obj 524 291 r~ out_del1;
#X obj 524 431 delwrite~ del1 3000;
#X obj 710 317 line~;
#X obj 710 277 pack 0 5;
#X obj 692 355 r~ out_del2;
#X obj 691 432 delwrite~ del2 3000;
#X obj 693 398 *~;
#X floatatom 710 246 5 0 0 0 - - -;
#X text 641 246 feedback;
#X floatatom 1149 268 5 0 0 0 - - -;
#X floatatom 1016 256 5 0 0 0 - - -;
#X text 970 256 speed;
#X text 1103 268 depth;
#X obj 1016 281 pack 0 5;
#X obj 1016 306 line~;
#X obj 1015 335 phasor~;
#X obj 907 514 s~ out_del1;
#X obj 905 486 *~;
#X obj 905 461 cos~;
#X obj 905 436 *~ 0.5;
#X obj 905 411 -~ 0.5;
#X obj 1016 431 *~;
#X obj 1015 459 *~;
#X obj 1015 489 vd~ del1;
#X obj 1149 429 line~;
#X obj 1149 404 pack 0 5;
#X obj 1236 537 vd~ del2;
#X obj 1236 512 *~;
#X obj 1236 467 *~;
#X obj 1236 424 wrap~;
#X obj 1236 399 +~ 0.5;
#X obj 1350 531 cos~;
#X obj 1350 506 *~ 0.5;
#X obj 1350 481 -~ 0.5;
#X obj 1350 580 *~;
#X obj 1350 605 s~ out_del2;
#X obj 229 434 *~;
#X obj 327 398 line~;
#X obj 327 373 pack 0 5;
#X obj 101 415 *~;
#X obj 44 374 r~ out_del2;
#X obj 43 352 r~ out_del1;
#X obj 142 373 line~;
#X obj 142 348 pack 0 5;
#X floatatom 277 339 5 0 0 0 - - -;
#X floatatom 142 302 5 0 0 0 - - -;
#X obj 699 727 dac~;
#X obj 230 383 r~ input;
#X obj 619 372 r~ input;
#X obj 450 377 r~ input;
#X obj 327 311 + 1;
#X obj 327 282 * -1;
#X text 108 300 wet;
#X text 244 341 dry;
#X obj 689 43 netreceive 3000;
#X obj 689 84 route 0 1 2 3 99;
#X obj 1283 256 pedal_input~;
#X obj 149 474 +~;
#X obj 149 508 s~ effect;
#X obj 664 674 r~ effect;
#X obj 1284 304 s~ input;
#X obj 1364 305 s~ clean;
#X obj 742 673 r~ clean;
#X obj 59 48 loadbang;
#X msg 59 82 \; pd dsp 1;
#X obj 245 229 / 100;
#X obj 710 196 / 100;
#X connect 0 0 2 0;
#X connect 1 0 0 0;
#X connect 3 0 0 1;
#X connect 3 0 7 1;
#X connect 4 0 3 0;
#X connect 5 0 7 0;
#X connect 7 0 6 0;
#X connect 8 0 4 0;
#X connect 10 0 26 0;
#X connect 11 0 14 0;
#X connect 14 0 15 0;
#X connect 15 0 16 0;
#X connect 16 0 21 0;
#X connect 16 0 22 0;
#X connect 16 0 22 1;
#X connect 16 0 31 0;
#X connect 18 0 17 0;
#X connect 19 0 18 0;
#X connect 20 0 19 0;
#X connect 21 0 20 0;
#X connect 22 0 23 0;
#X connect 23 0 24 0;
#X connect 24 0 18 1;
#X connect 25 0 23 1;
#X connect 25 0 28 1;
#X connect 26 0 25 0;
#X connect 27 0 35 1;
#X connect 28 0 27 0;
#X connect 29 0 28 0;
#X connect 30 0 29 0;
#X connect 30 0 29 1;
#X connect 30 0 34 0;
#X connect 31 0 30 0;
#X connect 32 0 35 0;
#X connect 33 0 32 0;
#X connect 34 0 33 0;
#X connect 35 0 36 0;
#X connect 37 0 58 1;
#X connect 38 0 37 1;
#X connect 39 0 38 0;
#X connect 40 0 58 0;
#X connect 41 0 40 0;
#X connect 42 0 40 0;
#X connect 43 0 40 1;
#X connect 44 0 43 0;
#X connect 46 0 44 0;
#X connect 48 0 37 0;
#X connect 49 0 6 0;
#X connect 50 0 2 0;
#X connect 51 0 45 0;
#X connect 51 0 39 0;
#X connect 52 0 51 0;
#X connect 55 0 56 0;
#X connect 56 0 66 0;
#X connect 56 1 67 0;
#X connect 56 2 11 0;
#X connect 56 3 10 0;
#X connect 56 4 57 0;
#X connect 57 0 61 0;
#X connect 57 1 62 0;
#X connect 58 0 59 0;
#X connect 60 0 47 0;
#X connect 60 0 47 1;
#X connect 63 0 47 0;
#X connect 63 0 47 1;
#X connect 64 0 65 0;
#X connect 66 0 46 0;
#X connect 66 0 52 0;
#X connect 67 0 8 0;
