#N canvas 65 56 1855 1024 12;
#X obj 947 530 vsl 15 128 0 2 0 0 empty empty empty 0 -9 0 10 -262144
-1 -1 12700 1;
#X obj 1235 256 * 0.05776;
#X obj 1235 289 exp;
#X obj 1235 321 -1;
#X obj 1235 352 * -1;
#X obj 1235 411 /;
#X floatatom 1235 442 5 0 0 0 - - -, f 5;
#X obj 1234 523 -~ 0.5;
#X obj 1233 567 *~ 0.5;
#X obj 1233 610 cos~;
#X obj 1232 757 +~;
#X obj 1233 650 *~;
#X obj 1539 254 max 1;
#X obj 1369 316 * 0.001;
#X obj 1369 350 t b f;
#X obj 1539 294 pack 0 200;
#X obj 1539 329 line~;
#X obj 1443 529 +~ 0.5;
#X obj 1444 563 wrap~;
#X obj 1443 605 -~ 0.5;
#X obj 1444 641 *~ 0.5;
#X obj 1445 677 cos~;
#X obj 1444 717 *~;
#X obj 1308 527 *~;
#X obj 1309 568 +~;
#X obj 1310 610 vd~ del_line;
#X obj 1522 597 *~;
#X obj 1523 630 +~;
#X obj 1523 667 vd~ del_line;
#X obj 1612 502 max 1.5;
#X obj 1612 536 pack 0 200;
#X obj 1612 579 line~;
#X obj 1611 626 s~ line;
#X obj 1347 526 r~ line;
#X floatatom 1235 222 5 0 0 0 - - -, f 5;
#X floatatom 1539 221 5 0 0 0 - - -, f 5;
#X obj 930 780 delwrite~ del_line 1000;
#X obj 1235 470 phasor~;
#X obj 1175 839 output~;
#X text 1285 221 Transposition (half steps);
#X text 1591 221 window (ms);
#X text 1662 467 delay (ms);
#X floatatom 1612 470 5 0 0 0 - - -, f 5;
#X obj 1612 440 counter;
#X obj 1612 377 key;
#X obj 1235 119 counter;
#X obj 1235 56 key;
#X obj 1235 86 select 49 50;
#X text 1334 86 Use keys 1 & 2 to control transposition;
#X text 19 19 QWERTY KEYBOARD WITH PITCH SHIFTER;
#X text 229 81 a: G;
#X text 222 97 w: G#;
#X text 229 109 s: A;
#X text 222 124 e: A#;
#X text 229 138 d: B;
#X text 222 169 t: C#;
#X text 166 154 f: (middle) C;
#X text 229 184 g: D;
#X text 222 200 y: D#;
#X text 229 217 h: E;
#X text 229 232 j: F;
#X text 222 248 i: F#;
#X text 229 264 k: G;
#X text 103 66 Keyboard Button Layout;
#X text 68 326 Pitch Shifter Button Layout;
#X text 82 355 2: increase transposition;
#X text 82 341 1: decrease transposition;
#X text 138 369 3: decrease delay;
#X text 138 383 4: increase delay;
#X obj 910 693 *~ 0.4;
#X obj 1249 179 loadbang;
#X text 970 855 make sure to turn volume on;
#X text 222 278 o: G#;
#X text 229 293 l: A;
#X obj 886 647 adc~;
#X floatatom 998 680 5 0 0 0 - - -, f 5;
#X obj 1538 183 counter;
#X obj 1538 120 key;
#X obj 1538 150 select 51 52;
#X text 1637 150 Use keys 3 & 4 to control delay;
#X obj 1612 407 select 53 54;
#X text 1711 407 Use keys 5 & 6 to control delay;
#X connect 0 0 69 1;
#X connect 0 0 75 0;
#X connect 1 0 2 0;
#X connect 2 0 3 0;
#X connect 3 0 4 0;
#X connect 4 0 5 0;
#X connect 5 0 6 0;
#X connect 6 0 37 0;
#X connect 7 0 8 0;
#X connect 8 0 9 0;
#X connect 9 0 11 0;
#X connect 10 0 38 1;
#X connect 10 0 38 0;
#X connect 11 0 10 0;
#X connect 12 0 13 0;
#X connect 12 0 15 0;
#X connect 13 0 14 0;
#X connect 14 0 5 0;
#X connect 14 1 5 1;
#X connect 15 0 16 0;
#X connect 16 0 23 1;
#X connect 16 0 26 1;
#X connect 17 0 18 0;
#X connect 18 0 19 0;
#X connect 18 0 26 0;
#X connect 19 0 20 0;
#X connect 20 0 21 0;
#X connect 21 0 22 0;
#X connect 22 0 10 1;
#X connect 23 0 24 0;
#X connect 24 0 25 0;
#X connect 25 0 11 1;
#X connect 26 0 27 0;
#X connect 27 0 28 0;
#X connect 28 0 22 1;
#X connect 29 0 30 0;
#X connect 30 0 31 0;
#X connect 31 0 27 1;
#X connect 31 0 32 0;
#X connect 33 0 24 1;
#X connect 34 0 1 0;
#X connect 35 0 12 0;
#X connect 37 0 7 0;
#X connect 37 0 17 0;
#X connect 37 0 23 0;
#X connect 42 0 29 0;
#X connect 43 0 42 0;
#X connect 44 0 80 0;
#X connect 45 0 34 0;
#X connect 46 0 47 0;
#X connect 47 0 45 0;
#X connect 47 1 45 1;
#X connect 69 0 36 0;
#X connect 70 0 34 0;
#X connect 74 0 69 0;
#X connect 74 1 69 0;
#X connect 76 0 35 0;
#X connect 77 0 78 0;
#X connect 78 0 76 0;
#X connect 78 1 76 1;
#X connect 80 0 43 0;
#X connect 80 1 43 1;
