#N canvas 0 96 1920 1104 10;
#X obj 327 86 netreceive 3000;
#X obj 45 275 * 0.05776;
#X obj 45 308 exp;
#X obj 45 340 -1;
#X obj 45 371 * -1;
#X obj 45 430 /;
#X floatatom 45 461 5 0 0 0 - - -;
#X obj 44 542 -~ 0.5;
#X obj 43 586 *~ 0.5;
#X obj 43 629 cos~;
#X obj 42 776 +~;
#X obj 43 669 *~;
#X obj 349 273 max 1;
#X obj 179 335 * 0.001;
#X obj 179 369 t b f;
#X obj 349 313 pack 0 200;
#X obj 349 348 line~;
#X obj 253 548 +~ 0.5;
#X obj 254 582 wrap~;
#X obj 253 624 -~ 0.5;
#X obj 254 660 *~ 0.5;
#X obj 255 696 cos~;
#X obj 254 736 *~;
#X obj 118 546 *~;
#X obj 119 587 +~;
#X obj 120 629 vd~ del_line;
#X obj 332 616 *~;
#X obj 333 649 +~;
#X obj 333 686 vd~ del_line;
#X obj 532 520 max 1.5;
#X obj 532 554 pack 0 200;
#X obj 532 597 line~;
#X floatatom 45 241 5 0 0 0 - - -;
#X floatatom 349 240 5 0 0 0 - - -;
#X obj 907 306 delwrite~ del_line 1000;
#X obj 45 489 phasor~;
#X text 95 240 Transposition (half steps);
#X text 401 240 window (ms);
#X text 582 241 delay (ms);
#X floatatom 532 244 5 0 0 0 - - -;
#X obj 45 88 loadbang;
#X obj 778 437 dac~;
#X obj 531 644 s~ \$0-line;
#X obj 157 545 r~ \$0-line;
#X msg 60 128 \; pd dsp 1;
#X obj 907 207 pedal_input~;
#X floatatom 706 240 5 0 0 0 - - -;
#X obj 706 199 / 100;
#X obj 788 264 + 1;
#X obj 788 241 * -1;
#X floatatom 788 296 5 0 0 0 - - -;
#X text 743 241 Wet;
#X text 829 304 Dry;
#X obj 327 130 route 0 1 2 3 99;
#X obj 43 810 s~ effect;
#X obj 976 266 s~ clean;
#X obj 810 369 r~ clean;
#X obj 647 291 r~ effect;
#X obj 691 317 *~;
#X obj 773 323 *~;
#X obj 758 371 +~;
#X obj 919 266 s~ dry;
#X obj 732 294 r~ dry;
#X connect 0 0 53 0;
#X connect 1 0 2 0;
#X connect 2 0 3 0;
#X connect 3 0 4 0;
#X connect 4 0 5 0;
#X connect 5 0 6 0;
#X connect 6 0 35 0;
#X connect 7 0 8 0;
#X connect 8 0 9 0;
#X connect 9 0 11 0;
#X connect 10 0 54 0;
#X connect 11 0 10 0;
#X connect 12 0 13 0;
#X connect 12 0 15 0;
#X connect 13 0 14 0;
#X connect 14 0 5 0;
#X connect 14 1 5 1;
#X connect 15 0 16 0;
#X connect 16 0 23 1;
#X connect 16 0 26 1;
#X connect 17 0 18 0;
#X connect 18 0 19 0;
#X connect 18 0 26 0;
#X connect 19 0 20 0;
#X connect 20 0 21 0;
#X connect 21 0 22 0;
#X connect 22 0 10 1;
#X connect 23 0 24 0;
#X connect 24 0 25 0;
#X connect 25 0 11 1;
#X connect 26 0 27 0;
#X connect 27 0 28 0;
#X connect 28 0 22 1;
#X connect 29 0 30 0;
#X connect 30 0 31 0;
#X connect 31 0 27 1;
#X connect 31 0 42 0;
#X connect 32 0 1 0;
#X connect 33 0 12 0;
#X connect 35 0 7 0;
#X connect 35 0 17 0;
#X connect 35 0 23 0;
#X connect 39 0 29 0;
#X connect 40 0 32 0;
#X connect 40 0 44 0;
#X connect 43 0 24 1;
#X connect 45 0 34 0;
#X connect 45 0 61 0;
#X connect 45 1 55 0;
#X connect 46 0 58 1;
#X connect 47 0 49 0;
#X connect 47 0 46 0;
#X connect 48 0 50 0;
#X connect 49 0 48 0;
#X connect 50 0 59 1;
#X connect 53 0 32 0;
#X connect 53 1 33 0;
#X connect 53 2 39 0;
#X connect 53 3 47 0;
#X connect 53 4 45 0;
#X connect 56 0 41 0;
#X connect 56 0 41 1;
#X connect 57 0 58 0;
#X connect 58 0 60 0;
#X connect 59 0 60 1;
#X connect 60 0 41 0;
#X connect 60 0 41 1;
#X connect 62 0 59 0;
