#N canvas 982 84 928 996 10;
#X obj 209 61 netreceive 3000;
#X floatatom 186 187 5 0 0 0 - - -, f 5;
#X obj 209 105 route 0 1 2;
#X floatatom 233 185 5 0 0 0 - - -, f 5;
#X floatatom 277 182 5 0 0 0 - - -, f 5;
#X connect 0 0 2 0;
#X connect 2 0 1 0;
#X connect 2 1 3 0;
#X connect 2 2 4 0;
