#N canvas 992 84 928 996 10;
#X obj 327 86 netreceive 3000;
#X obj 327 130 route 0 1 2;
#X obj 45 275 * 0.05776;
#X obj 45 308 exp;
#X obj 45 340 -1;
#X obj 45 371 * -1;
#X obj 45 430 /;
#X floatatom 45 461 5 0 0 0 - - -, f 5;
#X obj 44 542 -~ 0.5;
#X obj 43 586 *~ 0.5;
#X obj 43 629 cos~;
#X obj 42 776 +~;
#X obj 43 669 *~;
#X obj 349 273 max 1;
#X obj 179 335 * 0.001;
#X obj 179 369 t b f;
#X obj 349 313 pack 0 200;
#X obj 349 348 line~;
#X obj 253 548 +~ 0.5;
#X obj 254 582 wrap~;
#X obj 253 624 -~ 0.5;
#X obj 254 660 *~ 0.5;
#X obj 255 696 cos~;
#X obj 254 736 *~;
#X obj 118 546 *~;
#X obj 119 587 +~;
#X obj 120 629 vd~ del_line;
#X obj 332 616 *~;
#X obj 333 649 +~;
#X obj 333 686 vd~ del_line;
#X obj 532 520 max 1.5;
#X obj 532 554 pack 0 200;
#X obj 532 597 line~;
#X obj 531 644 s~ line;
#X obj 157 545 r~ line;
#X floatatom 45 241 5 0 0 0 - - -, f 5;
#X floatatom 349 240 5 0 0 0 - - -, f 5;
#X obj 46 97 delwrite~ del_line 1000;
#X obj 45 489 phasor~;
#X text 95 240 Transposition (half steps);
#X text 401 240 window (ms);
#X text 582 241 delay (ms);
#X floatatom 532 244 5 0 0 0 - - -, f 5;
#X obj 45 186 loadbang;
#X obj 45 21 adc~;
#X obj 41 824 dac~;
#X obj 46 57 *~ 1;
#X connect 0 0 1 0;
#X connect 1 0 35 0;
#X connect 1 1 36 0;
#X connect 1 2 42 0;
#X connect 2 0 3 0;
#X connect 3 0 4 0;
#X connect 4 0 5 0;
#X connect 5 0 6 0;
#X connect 6 0 7 0;
#X connect 7 0 38 0;
#X connect 8 0 9 0;
#X connect 9 0 10 0;
#X connect 10 0 12 0;
#X connect 11 0 45 1;
#X connect 11 0 45 0;
#X connect 12 0 11 0;
#X connect 13 0 14 0;
#X connect 13 0 16 0;
#X connect 14 0 15 0;
#X connect 15 0 6 0;
#X connect 15 1 6 1;
#X connect 16 0 17 0;
#X connect 17 0 24 1;
#X connect 17 0 27 1;
#X connect 18 0 19 0;
#X connect 19 0 20 0;
#X connect 19 0 27 0;
#X connect 20 0 21 0;
#X connect 21 0 22 0;
#X connect 22 0 23 0;
#X connect 23 0 11 1;
#X connect 24 0 25 0;
#X connect 25 0 26 0;
#X connect 26 0 12 1;
#X connect 27 0 28 0;
#X connect 28 0 29 0;
#X connect 29 0 23 1;
#X connect 30 0 31 0;
#X connect 31 0 32 0;
#X connect 32 0 28 1;
#X connect 32 0 33 0;
#X connect 34 0 25 1;
#X connect 35 0 2 0;
#X connect 36 0 13 0;
#X connect 38 0 8 0;
#X connect 38 0 18 0;
#X connect 38 0 24 0;
#X connect 42 0 30 0;
#X connect 43 0 35 0;
#X connect 44 0 46 0;
#X connect 46 0 37 0;
